<?xml version="1.0" encoding="UTF-8" standalone="no"?>
<!DOCTYPE svg PUBLIC "-//W3C//DTD SVG 1.1//EN" "http://www.w3.org/Graphics/SVG/1.1/DTD/svg11.dtd">
<svg width="100%" height="100%" viewBox="0 0 943 348" version="1.1" xmlns="http://www.w3.org/2000/svg" xmlns:xlink="http://www.w3.org/1999/xlink" xml:space="preserve" xmlns:serif="http://www.serif.com/" style="fill-rule:evenodd;clip-rule:evenodd;stroke-linejoin:round;stroke-miterlimit:2;">
    <g transform="matrix(1,0,0,1,-639.577554,-1007.874016)">
        <g transform="matrix(1,0,-0.025,1,31.496063,0)">
            <path d="M1196.85,1259.843L1165.354,1259.843L1174.803,1165.354L1143.307,1165.354L1146.457,1133.858L1177.953,1133.858L1190.551,1007.874L1222.047,1007.874L1196.85,1259.843Z" style="fill:#61397C;"/>
            <path d="M976.378,1259.843L944.882,1259.843L970.079,1007.874L1127.559,1007.874L1111.811,1165.354L1048.819,1165.354L1039.37,1259.843L1007.874,1259.843L1017.323,1165.354L985.827,1165.354L976.378,1259.843ZM998.425,1039.37L988.976,1133.858L1083.465,1133.858L1092.913,1039.37L1061.417,1039.37L1055.118,1102.362L1023.622,1102.362L1029.921,1039.37L998.425,1039.37Z" style="fill:#61397C;"/>
        </g>
        <g transform="matrix(1,0,0,1,-302.880161,93.445188)">
            <g>
                <g transform="matrix(1,0,0,1,944.882,1259.843)">
                    <path d="M12.121,-46.059L12.121,2.424L-2.424,2.424L-2.424,-60.604L60.604,-60.604L60.604,-21.818L16.969,-21.818L16.969,-36.363L46.059,-36.363L46.059,-46.059L12.121,-46.059Z" style="fill:black;"/>
                </g>
                <g transform="matrix(1,0,0,1,1039.171,1259.843)">
                    <path d="M46.059,-12.121L46.059,-60.604L60.604,-60.604L60.604,2.424L-2.424,2.424L-2.424,-60.604L12.121,-60.604L12.121,-12.121L46.059,-12.121Z" style="fill:black;"/>
                    <path d="M155.087,2.424L136.76,2.424L116.591,-21.818L111.258,-21.818L111.258,-36.363L140.348,-36.363L140.348,-46.059L106.41,-46.059L106.41,2.424L91.865,2.424L91.865,-60.604L154.893,-60.604L154.893,-21.818L135.985,-21.818L155.087,2.424Z" style="fill:black;"/>
                    <path d="M200.699,-46.059L200.699,2.424L186.154,2.424L186.154,-60.604L249.182,-60.604L249.182,-21.818L205.547,-21.818L205.547,-36.363L234.637,-36.363L234.637,-46.059L200.699,-46.059Z" style="fill:black;"/>
                    <path d="M343.471,-12.121L343.471,2.424L280.443,2.424L280.443,-60.604L294.988,-60.604L294.988,-12.121L343.471,-12.121Z" style="fill:black;"/>
                    <path d="M437.761,2.424L374.733,2.424L374.733,-60.604L437.761,-60.604L437.761,-46.059L389.278,-46.059L389.278,-36.363L437.761,-36.363L437.761,-21.818L389.278,-21.818L389.278,-12.121L437.761,-12.121L437.761,2.424Z" style="fill:black;"/>
                    <path d="M563.29,2.424L548.745,2.424L548.745,-21.818L514.807,-21.818L514.807,2.424L500.262,2.424L500.262,-60.604L514.807,-60.604L514.807,-36.363L548.745,-36.363L548.745,-60.604L563.29,-60.604L563.29,2.424Z" style="fill:black;"/>
                    <path d="M657.579,2.424L594.551,2.424L594.551,-60.604L657.579,-60.604L657.579,-46.059L609.096,-46.059L609.096,-36.363L657.579,-36.363L657.579,-21.818L609.096,-21.818L609.096,-12.121L657.579,-12.121L657.579,2.424Z" style="fill:black;"/>
                    <path d="M751.869,2.424L737.324,2.424L737.324,-21.818L703.386,-21.818L703.386,2.424L688.841,2.424L688.841,-60.604L751.869,-60.604L751.869,2.424ZM737.324,-36.363L737.324,-46.059L703.386,-46.059L703.386,-36.363L737.324,-36.363Z" style="fill:black;"/>
                    <path d="M846.158,-12.121L846.158,2.424L783.13,2.424L783.13,-60.604L797.675,-60.604L797.675,-12.121L846.158,-12.121Z" style="fill:black;"/>
                </g>
            </g>
        </g>
    </g>
</svg>
